<svg width="94" height="112" viewBox="0 0 94 112" fill="none" xmlns="http://www.w3.org/2000/svg">
<path d="M80.9054 34.3866C80.703 42.4248 77.8545 48.8817 72.1721 53.7654C71.6722 54.193 71.4942 54.5238 71.6746 55.2445C72.1331 57.0812 72.4575 58.9584 72.8843 60.8059C73.0745 61.6315 72.9086 62.2715 72.3014 62.7502C71.7039 63.2235 71.1015 63.0837 70.5211 62.6561C68.6505 61.2792 66.7678 59.9238 64.907 58.5281C64.3973 58.1462 63.9413 58.044 63.3048 58.1865C58.9955 59.152 54.7934 58.7298 50.6987 56.9199C50.25 56.7209 49.6208 56.6913 49.1696 56.8688C43.2312 59.2138 37.2904 59.308 31.3056 57.0866C30.9057 56.9387 30.3374 56.9791 29.957 57.1808C27.3304 58.5765 24.7331 60.0341 22.131 61.4836C21.4164 61.8816 20.714 62.1613 20.0165 61.4997C19.3142 60.8328 19.48 60.0206 19.7337 59.1896C20.4775 56.7478 21.1896 54.2952 21.9627 51.8641C22.1554 51.2617 22.0676 50.9067 21.6627 50.4684C16.2145 44.5251 13.5831 37.2964 13.6855 28.8629C13.8489 15.6452 23.0382 3.6511 34.8321 1.298C44.2384 -0.579105 52.2937 2.33874 59.054 9.75571C59.3564 10.0865 59.8661 10.3312 60.2929 10.3581C70.7357 11.0358 79.4689 20.069 80.681 31.493C80.7883 32.4907 80.8395 33.4938 80.9054 34.3866ZM23.5064 57.0732C25.6355 55.9007 27.5377 54.7819 29.5009 53.8165C30.0692 53.5368 30.8959 53.4696 31.469 53.7035C35.8613 55.4973 40.3193 55.8899 44.9091 54.8626C57.1615 52.1223 65.4826 38.2054 62.9194 24.6945C59.8466 8.50521 44.6652 -0.385478 30.8666 5.92621C21.0896 10.3984 15.178 22.1263 16.8803 33.5529C17.7997 39.714 20.336 44.8666 24.5575 49.0027C25.3282 49.7584 25.5111 50.5356 25.1697 51.5871C24.6063 53.3163 24.1088 55.0697 23.5064 57.0732ZM69.1871 57.7589C68.9359 56.5891 68.7383 55.6479 68.5311 54.7093C68.1799 53.1119 68.3067 52.7757 69.5163 51.8533C74.7938 47.8248 77.6082 42.2392 77.9057 35.1961C78.2593 26.7948 73.633 18.7513 66.6044 15.4166C65.2046 14.7523 63.7072 14.3328 62.2561 13.8004C62.2122 13.8837 62.1683 13.9671 62.1244 14.0505C65.9459 20.9457 67.2239 28.3385 65.5631 36.2234C63.9047 44.1029 59.8027 50.1161 53.5863 54.4888C56.4567 55.6371 60.0661 55.742 63.5657 54.7712C64.329 54.5587 64.9753 54.6367 65.6289 55.145C66.741 56.0109 67.897 56.8177 69.1871 57.7589Z" fill="#F0A80B"/>
<path d="M10.479 83.5034C9.49142 86.8217 8.64646 89.9934 7.59286 93.0727C7.01912 94.7569 7.19994 96.0711 8.14922 97.4777C9.31408 99.2082 10.3155 101.066 11.4143 102.854C12.6105 104.8 14.1857 104.827 15.3714 102.912C16.6197 100.892 17.8054 98.8228 19.0642 96.811C19.6901 95.8051 19.7492 94.8262 19.398 93.6893C18.4 90.4713 17.4577 87.234 16.5015 84.0006C16.4771 83.9158 16.498 83.8117 16.498 83.5728C19.019 83.4533 21.5539 83.145 23.6958 85.1991C25.0867 86.5288 25.8691 88.2399 25.883 90.2401C25.9317 97.1579 25.9039 104.076 25.9039 111.109C17.6072 111.109 9.35233 111.109 0.972248 111.109C0.954862 110.693 0.916613 110.23 0.916613 109.772C0.913136 103.571 0.909658 97.3698 0.916613 91.1689C0.923567 86.4054 3.50366 83.5266 7.77368 83.5073C8.58735 83.5034 9.41145 83.5034 10.479 83.5034Z" fill="#143E57"/>
<path d="M20.7388 72.9322C20.7906 77.0437 17.6152 80.5983 13.867 80.625C10.1463 80.6517 6.95369 77.1238 6.94679 72.9818C6.93989 68.9504 10.0738 65.4453 13.7324 65.3843C17.4599 65.3156 20.687 68.794 20.7388 72.9322Z" fill="#143E57"/>
<path d="M87.9781 72.9322C88.0298 77.0437 84.8545 80.5983 81.1062 80.625C77.3855 80.6517 74.1929 77.1238 74.186 72.9818C74.1791 68.9504 77.3131 65.4453 80.9716 65.3843C84.7026 65.3156 87.9263 68.794 87.9781 72.9322Z" fill="#143E57"/>
<path d="M13.8048 100.63C13.5268 100.365 13.4685 100.318 13.4239 100.263C11.2312 97.6545 10.5243 94.8271 12.1371 91.4413C12.7856 90.0784 13.0876 88.5007 13.7533 86.3411C14.7964 89.8363 15.7778 92.648 16.4092 95.5574C16.5739 96.3229 15.6989 97.4163 15.2322 98.3145C14.8308 99.0839 14.3298 99.7868 13.8048 100.63Z" fill="#143E57"/>
<path d="M93.1479 111.109C84.7494 111.109 76.5281 111.109 68.2199 111.109C68.1956 110.64 68.1574 110.224 68.1574 109.804C68.1539 103.562 68.1469 97.3197 68.1574 91.0773C68.1643 86.4052 70.7576 83.5072 74.943 83.4918C78.7598 83.4803 82.5767 83.4803 86.3902 83.4918C90.506 83.5072 93.134 86.409 93.141 90.9696C93.1584 97.6391 93.1479 104.309 93.1479 111.109Z" fill="#143E57"/>
<path d="M31.108 21.6314C31.2007 19.8269 31.1349 18.13 31.3958 16.4976C32.1738 11.6327 36.3173 8.31418 40.868 8.76329C45.2115 9.19357 48.6794 13.3969 48.716 18.2779C48.7233 19.3482 48.716 20.4185 48.716 21.6287C49.2379 21.6287 49.711 21.6206 50.1841 21.6314C51.8352 21.6637 53.0887 22.9948 53.0936 24.802C53.1082 31.2777 53.1082 37.7535 53.0936 44.2292C53.0887 46.0391 51.84 47.3891 50.1817 47.3918C43.3677 47.4052 36.5514 47.4052 29.7374 47.3918C28.0449 47.3891 26.8231 46.0149 26.8207 44.1324C26.8109 37.7911 26.8134 31.4499 26.8182 25.1086C26.8207 22.9007 27.9791 21.6395 29.9984 21.6314C30.3593 21.6287 30.7178 21.6314 31.108 21.6314ZM29.796 24.8908C29.796 31.3584 29.796 37.7454 29.796 44.1028C36.6245 44.1028 43.3897 44.1028 50.1378 44.1028C50.1378 37.6593 50.1378 31.2966 50.1378 24.8908C43.3458 24.8908 36.6026 24.8908 29.796 24.8908ZM45.7919 21.5937C45.7919 20.3728 45.8431 19.2379 45.7821 18.1085C45.6017 14.841 43.4482 12.3857 40.4705 11.9904C37.8732 11.6462 35.1198 13.5851 34.4443 16.5218C34.0736 18.1327 34.1321 19.8645 33.9931 21.5937C38.0415 21.5937 41.8581 21.5937 45.7919 21.5937Z" fill="#F0A80B"/>
<path d="M38.4461 26.5122C39.5362 26.5122 40.4361 26.5122 41.4165 26.5122C41.4165 26.8215 41.4409 27.0823 41.4116 27.3378C41.3482 27.8864 41.536 28.1392 42.0238 28.3597C43.4748 29.0105 44.243 30.2449 44.3455 32.0897C43.4529 32.0897 42.6066 32.0951 41.7628 32.0843C41.6531 32.0843 41.4848 32.044 41.4458 31.9633C40.9166 30.8769 39.9971 31.3475 39.2362 31.3367C38.9997 31.334 38.7582 31.8074 38.5168 32.0655C38.768 32.3452 38.9802 32.7755 39.2777 32.8642C39.7289 33.0014 40.241 32.8992 40.7288 32.9073C42.4335 32.9368 43.8089 34.1336 44.243 35.9623C44.6503 37.6699 43.9236 39.5363 42.5018 40.4345C41.4482 41.1014 41.4482 41.1014 41.3799 42.4864C40.4654 42.4864 39.5411 42.4864 38.5485 42.4864C38.5339 42.2471 38.4851 41.9889 38.507 41.7388C38.5607 41.1606 38.3851 40.8755 37.8535 40.6416C36.4268 40.0177 35.7098 38.7672 35.5415 36.9358C36.4682 36.9358 37.3316 36.925 38.1949 36.9465C38.3144 36.9492 38.4485 37.0783 38.5485 37.1832C39.0216 37.6753 40.4727 37.99 40.9702 37.6162C41.1775 37.4602 41.4068 37.0326 41.3482 36.8201C41.2702 36.5404 40.9458 36.215 40.6824 36.1586C40.1849 36.051 39.6533 36.129 39.1387 36.1155C37.4852 36.0779 36.1341 34.8946 35.6854 33.1036C35.2659 31.4255 35.8927 29.5188 37.3145 28.6986C38.1632 28.2091 38.8412 27.7896 38.4461 26.5122Z" fill="#F0A80B"/>
</svg>
