<svg width="94" height="82" viewBox="0 0 94 82" fill="none" xmlns="http://www.w3.org/2000/svg">
<path d="M-0.0003857 81.9059C-0.0003857 77.0955 -0.00130893 72.3745 0.002384 67.6535C0.002384 67.5045 0.0485457 67.3556 0.0743963 67.2066C0.608026 64.1949 2.37602 61.995 4.71457 60.2214C8.82573 57.1026 13.5767 55.4585 18.6203 55.3254C27.8351 55.0833 37.0665 55.075 46.2813 55.3263C51.4431 55.4669 56.2938 57.1566 60.453 60.4328C63.4673 62.8068 65.1116 65.8418 64.9934 69.8161C64.8863 73.4051 64.9713 77.0005 64.9713 80.5923C64.9713 81.001 64.9713 81.4097 64.9713 81.9738C64.4681 81.9738 64.0693 81.9738 63.6704 81.9738C55.6078 81.9738 47.5452 81.9543 39.4836 81.9999C38.5372 82.0055 38.204 81.7057 37.9953 80.8138C37.1635 77.2491 36.2698 73.6993 35.3567 70.155C35.1619 69.4 35.2321 68.8237 35.7131 68.1795C37.0656 66.3687 38.3434 64.5012 39.646 62.6522C39.8547 62.3571 40.0421 62.0471 40.3135 61.63C35.0197 61.63 29.8745 61.63 24.5235 61.63C25.7938 63.4268 26.8713 65.1975 28.1952 66.7551C29.5246 68.32 29.7665 69.8245 29.1526 71.7945C28.2007 74.8509 27.5369 78.0004 26.7983 81.1211C26.6488 81.7532 26.4087 81.9859 25.7541 81.9841C17.3546 81.9636 8.95406 81.9692 0.554478 81.9664C0.408607 81.9683 0.263659 81.9366 -0.0003857 81.9059ZM15.9356 34.1409C15.9346 43.3511 23.3085 50.7748 32.4513 50.7682C41.5885 50.7617 48.9855 43.3157 48.9809 34.1279C48.9763 24.9409 41.5701 17.4921 32.4393 17.4912C23.3067 17.4903 15.9365 24.9251 15.9356 34.1409Z" fill="#143E57"/>
<path d="M72.121 71.4166C72.1182 69.9894 72.1201 68.6115 72.1487 67.2356C81.2518 62.2846 87.0599 54.7334 89.4123 44.7886C91.4766 36.0616 89.7723 26.6345 84.7379 18.9231C79.7045 11.2128 71.7951 5.90988 63.0373 4.37376C60.9157 4.00136 58.8043 3.8133 56.7621 3.8133C49.643 3.8133 42.9514 6.09421 36.871 10.5936C36.8479 10.6104 36.8018 10.6318 36.7621 10.6467C35.3274 10.3842 33.8853 10.251 32.4727 10.251C32.1413 10.251 31.8089 10.2585 31.4766 10.2734C33.889 7.90776 36.8018 5.80654 39.9823 4.16242C45.2531 1.4393 51.1488 0 57.0326 0C59.9685 0 62.9293 0.355635 65.831 1.05667C69.8379 2.02489 73.6296 3.67179 77.1028 5.9527C80.4901 8.17682 83.486 10.9446 86.0074 14.177C88.5315 17.4131 90.5017 21.0169 91.8644 24.887C93.264 28.8632 93.9823 33.0164 93.9998 37.2319C94.0349 45.5716 91.4083 53.4533 86.4044 60.0232C84.1701 62.9568 81.5371 65.5356 78.579 67.6871C76.5018 69.1971 74.3386 70.4465 72.121 71.4166ZM68.0597 46.8619C67.5649 46.3629 67.0682 45.8621 66.5696 45.3593C64.3141 43.084 61.9811 40.7314 59.6472 38.4328C58.6049 37.4059 58.1442 36.3074 58.1543 34.8709C58.194 29.2747 58.1894 23.5818 58.1848 18.0769C58.183 16.2773 58.182 14.4786 58.182 12.6791H55.5988C55.5979 14.1658 55.597 15.6517 55.5951 17.1385C55.5887 23.7103 55.5822 30.5064 55.6459 37.1853C55.6496 37.6042 55.9718 38.2792 56.3642 38.6888C58.9723 41.4148 61.6857 44.1369 64.3105 46.7688C64.953 47.414 65.5965 48.0582 66.2382 48.7043L68.0597 46.8619ZM82.3865 39.4401V35.2721H78.3482V39.4401H82.3865ZM73.6139 23.3248L76.4094 20.5486L73.7099 17.7929L70.9263 20.5924L73.6139 23.3248ZM73.6296 56.9259L76.4667 54.0929L73.7782 51.34L70.9153 54.2213L73.6296 56.9259Z" fill="#F0A80B"/>
</svg>
